<svg width="36" height="36" viewBox="0 0 36 36" fill="none" xmlns="http://www.w3.org/2000/svg">
<rect width="36" height="36" rx="4" fill="#171820"/>
<path d="M11.0781 12.6865C11.0781 12.2203 11.2419 11.8357 11.5693 11.5327C11.8967 11.2296 12.3224 11.0781 12.8463 11.0781C13.3609 11.0781 13.7772 11.2273 14.0953 11.5257C14.4227 11.8334 14.5864 12.2343 14.5864 12.7285C14.5864 13.176 14.4274 13.549 14.1093 13.8474C13.7819 14.155 13.3515 14.3089 12.8182 14.3089H12.8042C12.2897 14.3089 11.8733 14.155 11.5553 13.8474C11.2372 13.5397 11.0781 13.1527 11.0781 12.6865ZM11.2606 24.9243V15.5816H14.3759V24.9243H11.2606ZM16.102 24.9243H19.2174V19.7075C19.2174 19.3811 19.2548 19.1294 19.3297 18.9523C19.4607 18.6352 19.6595 18.3672 19.9261 18.1481C20.1927 17.9289 20.5272 17.8194 20.9295 17.8194C21.9773 17.8194 22.5012 18.5233 22.5012 19.9313V24.9243H25.6166V19.5676C25.6166 18.1877 25.2891 17.1411 24.6343 16.4278C23.9794 15.7145 23.114 15.3578 22.0381 15.3578C20.8312 15.3578 19.891 15.8753 19.2174 16.9103V16.9383H19.2034L19.2174 16.9103V15.5816H16.102C16.1207 15.88 16.1301 16.8077 16.1301 18.3648C16.1301 19.9219 16.1207 22.1084 16.102 24.9243Z" fill="white"/>
</svg>
