<svg width="36" height="36" viewBox="0 0 36 36" fill="none" xmlns="http://www.w3.org/2000/svg">
<rect width="36" height="36" rx="4" fill="#171820"/>
<path d="M27 12.7173C26.3306 12.9953 25.6174 13.1795 24.8737 13.269C25.6388 12.8366 26.2226 12.1571 26.4971 11.338C25.7839 11.7406 24.9964 12.025 24.1571 12.1837C23.4799 11.501 22.5146 11.0781 21.4616 11.0781C19.4186 11.0781 17.7739 12.6481 17.7739 14.5727C17.7739 14.8496 17.7986 15.1159 17.8594 15.3694C14.7915 15.2277 12.0769 13.8356 10.2533 11.715C9.93487 12.238 9.74813 12.8366 9.74813 13.481C9.74813 14.6909 10.4062 15.7635 11.3872 16.3844C10.7944 16.3737 10.2127 16.2108 9.72 15.9541C9.72 15.9648 9.72 15.9786 9.72 15.9924C9.72 17.6902 10.9991 19.1004 12.6765 19.4252C12.3761 19.503 12.0487 19.5403 11.709 19.5403C11.4727 19.5403 11.2342 19.5275 11.0104 19.4806C11.4885 20.8642 12.8453 21.8813 14.4585 21.9143C13.203 22.8442 11.6089 23.4044 9.88313 23.4044C9.5805 23.4044 9.29025 23.3916 9 23.3565C10.6346 24.3545 12.5719 24.9243 14.661 24.9243C21.4515 24.9243 25.164 19.5988 25.164 14.9827C25.164 14.8283 25.1584 14.6792 25.1505 14.5311C25.8829 14.0391 26.4982 13.4245 27 12.7173Z" fill="white"/>
</svg>
