<svg width="128" height="20" viewBox="0 0 128 20" fill="none" xmlns="http://www.w3.org/2000/svg">
<path d="M9.80979 0.58541C9.86966 0.401148 10.1303 0.401148 10.1902 0.58541L12.2002 6.77163C12.227 6.85404 12.3038 6.90983 12.3904 6.90983H18.895C19.0888 6.90983 19.1693 7.15775 19.0126 7.27163L13.7503 11.0949C13.6802 11.1459 13.6508 11.2361 13.6776 11.3185L15.6876 17.5048C15.7475 17.689 15.5366 17.8422 15.3799 17.7284L10.1176 13.9051C10.0475 13.8541 9.95254 13.8541 9.88244 13.9051L4.62013 17.7284C4.46338 17.8422 4.25249 17.689 4.31236 17.5048L6.32238 11.3185C6.34916 11.2361 6.31983 11.1459 6.24973 11.0949L0.987415 7.27163C0.830672 7.15775 0.911227 6.90983 1.10497 6.90983H7.60955C7.6962 6.90983 7.77299 6.85404 7.79976 6.77163L9.80979 0.58541Z" fill="#FFD231"/>
<path d="M36.8098 0.58541C36.8697 0.401148 37.1303 0.401148 37.1902 0.58541L39.2002 6.77163C39.227 6.85404 39.3038 6.90983 39.3904 6.90983H45.895C46.0888 6.90983 46.1693 7.15775 46.0126 7.27163L40.7503 11.0949C40.6802 11.1459 40.6508 11.2361 40.6776 11.3185L42.6876 17.5048C42.7475 17.689 42.5366 17.8422 42.3799 17.7284L37.1176 13.9051C37.0475 13.8541 36.9525 13.8541 36.8824 13.9051L31.6201 17.7284C31.4634 17.8422 31.2525 17.689 31.3124 17.5048L33.3224 11.3185C33.3492 11.2361 33.3198 11.1459 33.2497 11.0949L27.9874 7.27163C27.8307 7.15775 27.9112 6.90983 28.105 6.90983H34.6096C34.6962 6.90983 34.773 6.85404 34.7998 6.77163L36.8098 0.58541Z" fill="#FFD231"/>
<path d="M63.8098 0.58541C63.8697 0.401148 64.1303 0.401148 64.1902 0.58541L66.2002 6.77163C66.227 6.85404 66.3038 6.90983 66.3904 6.90983H72.895C73.0888 6.90983 73.1693 7.15775 73.0126 7.27163L67.7503 11.0949C67.6802 11.1459 67.6508 11.2361 67.6776 11.3185L69.6876 17.5048C69.7475 17.689 69.5366 17.8422 69.3799 17.7284L64.1176 13.9051C64.0475 13.8541 63.9525 13.8541 63.8824 13.9051L58.6201 17.7284C58.4634 17.8422 58.2525 17.689 58.3124 17.5048L60.3224 11.3185C60.3492 11.2361 60.3198 11.1459 60.2497 11.0949L54.9874 7.27163C54.8307 7.15775 54.9112 6.90983 55.105 6.90983H61.6096C61.6962 6.90983 61.773 6.85404 61.7998 6.77163L63.8098 0.58541Z" fill="#FFD231"/>
<path d="M90.8098 0.58541C90.8697 0.401148 91.1303 0.401148 91.1902 0.58541L93.2002 6.77163C93.227 6.85404 93.3038 6.90983 93.3904 6.90983H99.895C100.089 6.90983 100.169 7.15775 100.013 7.27163L94.7503 11.0949C94.6802 11.1459 94.6508 11.2361 94.6776 11.3185L96.6876 17.5048C96.7475 17.689 96.5366 17.8422 96.3799 17.7284L91.1176 13.9051C91.0475 13.8541 90.9525 13.8541 90.8824 13.9051L85.6201 17.7284C85.4634 17.8422 85.2525 17.689 85.3124 17.5048L87.3224 11.3185C87.3492 11.2361 87.3198 11.1459 87.2497 11.0949L81.9874 7.27163C81.8307 7.15775 81.9112 6.90983 82.105 6.90983H88.6096C88.6962 6.90983 88.773 6.85404 88.7998 6.77163L90.8098 0.58541Z" fill="#FFD231"/>
<path d="M117.81 0.58541C117.87 0.401148 118.13 0.401148 118.19 0.58541L120.2 6.77163C120.227 6.85404 120.304 6.90983 120.39 6.90983H126.895C127.089 6.90983 127.169 7.15775 127.013 7.27163L121.75 11.0949C121.68 11.1459 121.651 11.2361 121.678 11.3185L123.688 17.5048C123.748 17.689 123.537 17.8422 123.38 17.7284L118.118 13.9051C118.047 13.8541 117.953 13.8541 117.882 13.9051L112.62 17.7284C112.463 17.8422 112.252 17.689 112.312 17.5048L114.322 11.3185C114.349 11.2361 114.32 11.1459 114.25 11.0949L108.987 7.27163C108.831 7.15775 108.911 6.90983 109.105 6.90983H115.61C115.696 6.90983 115.773 6.85404 115.8 6.77163L117.81 0.58541Z" fill="#FFD231"/>
</svg>
