<svg width="38" height="56" viewBox="0 0 38 56" fill="none" xmlns="http://www.w3.org/2000/svg">
<path d="M34.3706 1C34.3706 1.56768 34.6476 2.11208 35.1407 2.51349C35.6339 2.91489 36.3026 3.14039 37 3.14039M37 3.14039C36.6547 3.14039 36.3128 3.19576 35.9938 3.3033C35.6748 3.41089 35.3849 3.56856 35.1407 3.76729C34.8966 3.96607 34.7029 4.20202 34.5708 4.4617C34.4386 4.72138 34.3706 4.99971 34.3706 5.28078M37 3.14039C29.3826 3.14039 16.6025 5.21169 22.6084 13.0776C25.8933 17.38 28.9907 26.1992 16.3869 30.1373C12.4096 31.38 3.9782 32.9247 2.07064 29.1619C0.776217 26.6086 2.97207 21.6886 7.6687 25.9775C12.1469 30.0669 16.7331 41.2775 1 55" stroke="url(#paint0_linear_1_2864)" stroke-width="2" stroke-linecap="round" stroke-linejoin="round"/>
<defs>
<linearGradient id="paint0_linear_1_2864" x1="-6.9395" y1="37.6776" x2="30.2887" y2="-5.66342" gradientUnits="userSpaceOnUse">
<stop stop-color="#F9CC25"/>
<stop offset="1" stop-color="#FF4040"/>
</linearGradient>
</defs>
</svg>
