<svg width="115" height="34" viewBox="0 0 115 34" fill="none" xmlns="http://www.w3.org/2000/svg">
<path d="M38.876 26.36C37.684 26.36 36.644 26.06 35.756 25.46C34.868 24.86 34.18 24.044 33.692 23.012C33.204 21.98 32.96 20.816 32.96 19.52C32.96 18.208 33.204 17.04 33.692 16.016C34.188 14.984 34.888 14.172 35.792 13.58C36.696 12.98 37.76 12.68 38.984 12.68C40.216 12.68 41.248 12.98 42.08 13.58C42.92 14.172 43.556 14.984 43.988 16.016C44.42 17.048 44.636 18.216 44.636 19.52C44.636 20.808 44.42 21.972 43.988 23.012C43.556 24.044 42.912 24.86 42.056 25.46C41.2 26.06 40.14 26.36 38.876 26.36ZM39.32 23.768C40.096 23.768 40.72 23.592 41.192 23.24C41.672 22.88 42.02 22.38 42.236 21.74C42.46 21.1 42.572 20.36 42.572 19.52C42.572 18.672 42.46 17.932 42.236 17.3C42.02 16.66 41.68 16.164 41.216 15.812C40.752 15.452 40.152 15.272 39.416 15.272C38.64 15.272 38 15.464 37.496 15.848C36.992 16.224 36.62 16.736 36.38 17.384C36.14 18.024 36.02 18.736 36.02 19.52C36.02 20.312 36.136 21.032 36.368 21.68C36.608 22.32 36.972 22.828 37.46 23.204C37.948 23.58 38.568 23.768 39.32 23.768ZM42.572 26V16.904H42.212V8.72H45.128V26H42.572ZM54.3845 26.36C53.0725 26.36 51.9205 26.076 50.9285 25.508C49.9365 24.94 49.1605 24.152 48.6005 23.144C48.0485 22.136 47.7725 20.976 47.7725 19.664C47.7725 18.248 48.0445 17.02 48.5885 15.98C49.1325 14.932 49.8885 14.12 50.8565 13.544C51.8245 12.968 52.9445 12.68 54.2165 12.68C55.5605 12.68 56.7005 12.996 57.6365 13.628C58.5805 14.252 59.2805 15.136 59.7365 16.28C60.1925 17.424 60.3645 18.772 60.2525 20.324H57.3845V19.268C57.3765 17.86 57.1285 16.832 56.6405 16.184C56.1525 15.536 55.3845 15.212 54.3365 15.212C53.1525 15.212 52.2725 15.58 51.6965 16.316C51.1205 17.044 50.8325 18.112 50.8325 19.52C50.8325 20.832 51.1205 21.848 51.6965 22.568C52.2725 23.288 53.1125 23.648 54.2165 23.648C54.9285 23.648 55.5405 23.492 56.0525 23.18C56.5725 22.86 56.9725 22.4 57.2525 21.8L60.1085 22.664C59.6125 23.832 58.8445 24.74 57.8045 25.388C56.7725 26.036 55.6325 26.36 54.3845 26.36ZM49.9205 20.324V18.14H58.8365V20.324H49.9205ZM70.526 26C69.67 26.16 68.83 26.228 68.006 26.204C67.19 26.188 66.458 26.04 65.81 25.76C65.162 25.472 64.67 25.02 64.334 24.404C64.038 23.844 63.882 23.272 63.866 22.688C63.85 22.104 63.842 21.444 63.842 20.708V9.44H66.722V20.54C66.722 21.06 66.726 21.516 66.734 21.908C66.75 22.3 66.834 22.62 66.986 22.868C67.274 23.348 67.734 23.616 68.366 23.672C68.998 23.728 69.718 23.696 70.526 23.576V26ZM61.49 15.308V13.04H70.526V15.308H61.49ZM76.9368 26.36C76.0008 26.36 75.2088 26.184 74.5608 25.832C73.9128 25.472 73.4208 24.996 73.0848 24.404C72.7568 23.812 72.5928 23.16 72.5928 22.448C72.5928 21.824 72.6968 21.264 72.9048 20.768C73.1128 20.264 73.4328 19.832 73.8648 19.472C74.2968 19.104 74.8568 18.804 75.5448 18.572C76.0648 18.404 76.6728 18.252 77.3688 18.116C78.0728 17.98 78.8328 17.856 79.6488 17.744C80.4728 17.624 81.3328 17.496 82.2288 17.36L81.1968 17.948C81.2048 17.052 81.0048 16.392 80.5968 15.968C80.1888 15.544 79.5008 15.332 78.5328 15.332C77.9488 15.332 77.3848 15.468 76.8408 15.74C76.2968 16.012 75.9168 16.48 75.7008 17.144L73.0608 16.316C73.3808 15.22 73.9888 14.34 74.8848 13.676C75.7888 13.012 77.0048 12.68 78.5328 12.68C79.6848 12.68 80.6968 12.868 81.5688 13.244C82.4488 13.62 83.1008 14.236 83.5248 15.092C83.7568 15.548 83.8968 16.016 83.9448 16.496C83.9928 16.968 84.0168 17.484 84.0168 18.044V26H81.4848V23.192L81.9048 23.648C81.3208 24.584 80.6368 25.272 79.8528 25.712C79.0768 26.144 78.1048 26.36 76.9368 26.36ZM77.5128 24.056C78.1688 24.056 78.7288 23.94 79.1928 23.708C79.6568 23.476 80.0248 23.192 80.2968 22.856C80.5768 22.52 80.7648 22.204 80.8608 21.908C81.0128 21.54 81.0968 21.12 81.1128 20.648C81.1368 20.168 81.1488 19.78 81.1488 19.484L82.0368 19.748C81.1648 19.884 80.4168 20.004 79.7928 20.108C79.1688 20.212 78.6328 20.312 78.1848 20.408C77.7368 20.496 77.3408 20.596 76.9968 20.708C76.6608 20.828 76.3768 20.968 76.1448 21.128C75.9128 21.288 75.7328 21.472 75.6048 21.68C75.4848 21.888 75.4248 22.132 75.4248 22.412C75.4248 22.732 75.5048 23.016 75.6648 23.264C75.8248 23.504 76.0568 23.696 76.3608 23.84C76.6728 23.984 77.0568 24.056 77.5128 24.056ZM92.7689 26.36C91.4329 26.36 90.2929 26.064 89.3489 25.472C88.4049 24.872 87.6809 24.056 87.1769 23.024C86.6809 21.992 86.4289 20.824 86.4209 19.52C86.4289 18.192 86.6889 17.016 87.2009 15.992C87.7209 14.96 88.4569 14.152 89.4089 13.568C90.3609 12.976 91.4929 12.68 92.8049 12.68C94.2769 12.68 95.5209 13.052 96.5369 13.796C97.5609 14.532 98.2289 15.54 98.5409 16.82L95.6609 17.6C95.4369 16.904 95.0649 16.364 94.5449 15.98C94.0249 15.588 93.4329 15.392 92.7689 15.392C92.0169 15.392 91.3969 15.572 90.9089 15.932C90.4209 16.284 90.0609 16.772 89.8289 17.396C89.5969 18.02 89.4809 18.728 89.4809 19.52C89.4809 20.752 89.7569 21.748 90.3089 22.508C90.8609 23.268 91.6809 23.648 92.7689 23.648C93.5369 23.648 94.1409 23.472 94.5809 23.12C95.0289 22.768 95.3649 22.26 95.5889 21.596L98.5409 22.256C98.1409 23.576 97.4409 24.592 96.4409 25.304C95.4409 26.008 94.2169 26.36 92.7689 26.36ZM109.91 26V19.76C109.91 19.352 109.882 18.9 109.826 18.404C109.77 17.908 109.638 17.432 109.43 16.976C109.23 16.512 108.926 16.132 108.518 15.836C108.118 15.54 107.574 15.392 106.886 15.392C106.518 15.392 106.154 15.452 105.794 15.572C105.434 15.692 105.106 15.9 104.81 16.196C104.522 16.484 104.29 16.884 104.114 17.396C103.938 17.9 103.85 18.548 103.85 19.34L102.134 18.608C102.134 17.504 102.346 16.504 102.77 15.608C103.202 14.712 103.834 14 104.666 13.472C105.498 12.936 106.522 12.668 107.738 12.668C108.698 12.668 109.49 12.828 110.114 13.148C110.738 13.468 111.234 13.876 111.602 14.372C111.97 14.868 112.242 15.396 112.418 15.956C112.594 16.516 112.706 17.048 112.754 17.552C112.81 18.048 112.838 18.452 112.838 18.764V26H109.91ZM100.922 26V8.72H103.502V17.816H103.85V26H100.922Z" fill="white"/>
<rect y="5" width="24" height="24" rx="4" fill="url(#paint0_linear_1_2925)"/>
<path d="M16.5789 19.3682V21.9998H5V14.6313H7.10526" stroke="white" stroke-miterlimit="10" stroke-linecap="round" stroke-linejoin="round"/>
<path d="M7.10529 12H18.6842V19.3684H7.10529V12Z" stroke="white" stroke-miterlimit="10" stroke-linecap="round" stroke-linejoin="round"/>
<defs>
<linearGradient id="paint0_linear_1_2925" x1="0" y1="17" x2="24" y2="17" gradientUnits="userSpaceOnUse">
<stop stop-color="#FF4040"/>
<stop offset="1" stop-color="#AC00FD"/>
</linearGradient>
</defs>
</svg>
